<!DOCTYPE svg PUBLIC "-//W3C//DTD SVG 1.1//EN">

<!-- Uploaded to: SVG Repo, www.svgrepo.com, Transformed by: SVG Repo Mixer Tools -->
<svg version="1.1" id="_x32_" xmlns="http://www.w3.org/2000/svg" xmlns:xlink="http://www.w3.org/1999/xlink" width="800px" height="800px" viewBox="0 0 512 512" xml:space="preserve" fill="#000000">

<g id="SVGRepo_bgCarrier" stroke-width="0"/>

<g id="SVGRepo_tracerCarrier" stroke-linecap="round" stroke-linejoin="round"/>

<g id="SVGRepo_iconCarrier"> <style type="text/css">  .st0{fill:#969292;}  </style> <g> <path class="st0" d="M99.281,399.469h320.094c6.172,0,11.844-3.422,14.719-8.875c2.844-5.469,2.438-12.078-1.063-17.141 l-69.156-100.094c-6.313-9.125-16.781-14.516-27.906-14.297s-21.406,5.969-27.375,15.359l-19.719,30.984l-54.828-79.359 c-6.313-9.172-16.797-14.531-27.922-14.328s-21.406,5.969-27.375,15.359L85.281,373.984c-3.25,5.109-3.469,11.578-0.531,16.875 C87.656,396.172,93.219,399.469,99.281,399.469z"/> <path class="st0" d="M322.672,223.906c23.688,0,42.922-19.219,42.922-42.922c0-23.688-19.234-42.906-42.922-42.906 c-23.703,0-42.922,19.219-42.922,42.906C279.75,204.688,298.969,223.906,322.672,223.906z"/> <path class="st0" d="M0,19.703v472.594h512v-25.313V19.703H0z M461.375,441.672H50.625V70.328h410.75V441.672z"/> </g> </g>

</svg>
